<svg id="Layer_1" data-name="Layer 1" xmlns="http://www.w3.org/2000/svg" viewBox="0 0 1000 1000"><defs><style>.cls-1{fill:#00011a;}.cls-2{fill:#00ff8b;}</style></defs><title>Ico01</title><rect class="cls-1" x="-15.5" y="-13" width="1029" height="1029"/><path class="cls-2" d="M823.47,648.11a33.3,33.3,0,0,0-21.35-4.2L732.42,437.2l.18-.09a33.47,33.47,0,1,0-44.34-47.78L566.6,337.09A33.46,33.46,0,0,0,535,296.46L518,187.94a33.47,33.47,0,1,0-35.52-8.39L365.4,343.65a33.45,33.45,0,0,0-50.28,42.47,31.91,31.91,0,0,0,1.82,2.84L175.81,481.24a33.48,33.48,0,1,0,4.34,40.91l135.52,52.12a33.29,33.29,0,0,0,24.17,38.19L328,769.54a33.46,33.46,0,1,0,36.79,27.54l165.3-62.14a33.42,33.42,0,0,0,61.94-16.52l183.16-29.87a33.47,33.47,0,1,0,48.24-40.44ZM561.6,348.65,683.3,400.9A32.83,32.83,0,0,0,689.91,429L605,529a33.33,33.33,0,0,0-16.37-4.35c-.54,0-1.08.05-1.62.08L547.68,360.38A33.18,33.18,0,0,0,561.6,348.65ZM492.74,186.87a33.54,33.54,0,0,0,12.83,3l17,108.53a33.44,33.44,0,0,0,12.84,64.9l39.35,164.35a33.53,33.53,0,0,0-8.37,5.43L374,384.57a33.41,33.41,0,0,0-.35-30.82ZM320.19,562.52,184.67,510.4a32.85,32.85,0,0,0-1.95-18.64l143.66-93.93a33.51,33.51,0,0,0,39.95-3.28L558.72,543.07a33,33,0,0,0-3.46,11.82l-174.55,16a33.41,33.41,0,0,0-60.52-8.39ZM542,688.45a33.47,33.47,0,0,0-16.31,34.71L360.42,785.29a33.2,33.2,0,0,0-19.82-14.81l11.8-157.09a33.32,33.32,0,0,0,29.47-29.94l174.55-16a33.51,33.51,0,0,0,19.9,21.85L558.52,684A33.25,33.25,0,0,0,542,688.45Zm235.71-28.23a33.35,33.35,0,0,0-4.52,15.9L590.05,706a34.06,34.06,0,0,0-2.37-5.15,33.26,33.26,0,0,0-16.78-14.48l17.79-94.75a33.45,33.45,0,0,0,25.94-54.44l84.87-100a33.57,33.57,0,0,0,21,4l69.7,206.71A33.41,33.41,0,0,0,777.71,660.22Z"/><path class="cls-2" d="M740.32,746.71c-83.46,80.1-205,112.13-317.07,83.58a18.23,18.23,0,0,0-9,35.34A369.11,369.11,0,0,0,505.4,877c95.68,0,190.05-36.67,260.18-104a18.24,18.24,0,1,0-25.26-26.31Z"/><path class="cls-2" d="M181.4,594.44a18.24,18.24,0,0,0-35.11,9.89,375,375,0,0,0,90.54,158.16,18.24,18.24,0,0,0,26.26-25.31A338.37,338.37,0,0,1,181.4,594.44Z"/><path class="cls-2" d="M159.46,421a18.24,18.24,0,0,0,22.59-12.43A337.6,337.6,0,0,1,414.32,177.86a18.24,18.24,0,1,0-9.95-35.09A374,374,0,0,0,147,398.42,18.23,18.23,0,0,0,159.46,421Z"/><path class="cls-2" d="M694.59,179.2a374.37,374.37,0,0,0-83.74-35.86,18.24,18.24,0,0,0-10.16,35,337.51,337.51,0,0,1,75.57,32.36C805.87,286.07,870.79,440.09,834.15,585.3a18.23,18.23,0,1,0,35.36,8.92C889,517,882.91,433.74,852.38,359.75A370.82,370.82,0,0,0,694.59,179.2Z"/></svg>