<?xml version="1.0" encoding="UTF-8"?>
<!DOCTYPE svg PUBLIC "-//W3C//DTD SVG 1.1//EN" "http://www.w3.org/Graphics/SVG/1.1/DTD/svg11.dtd">
<!-- Creator: CorelDRAW X6 -->
<svg xmlns="http://www.w3.org/2000/svg" xml:space="preserve" width="16.6401mm" height="16.4562mm" version="1.1" style="shape-rendering:geometricPrecision; text-rendering:geometricPrecision; image-rendering:optimizeQuality; fill-rule:evenodd; clip-rule:evenodd"
viewBox="0 0 21 21"
 xmlns:xlink="http://www.w3.org/1999/xlink">
 <defs>
  <style type="text/css">
   <![CDATA[
    .fil0 {fill:#FEFEFE;fill-rule:nonzero}
   ]]>
  </style>
 </defs>
 <g id="Capa_x0020_1">
  <metadata id="CorelCorpID_0Corel-Layer"/>
  <path class="fil0" d="M18 15c0,0 0,0 0,0l-5 1c0,0 0,0 0,0 0,0 0,0 0,0l0 -3c1,0 1,0 1,-1 0,0 0,0 0,-1l2 -3c0,0 0,0 1,0l2 6c0,0 0,0 0,0zm-7 1c0,0 -1,1 0,1l-5 2c0,0 0,0 0,0 0,0 0,0 0,0l0 -4c0,0 1,0 1,0 0,0 0,0 0,0l5 0c0,0 0,1 1,1l0 3c0,0 0,0 0,0zm-6 -4l-4 -1c0,0 0,0 0,0 0,0 0,0 0,0l4 -3c0,0 1,0 1,0 0,0 0,0 0,0l5 4c0,0 0,0 0,0l-5 0c0,0 0,0 0,-1 0,0 -1,0 -1,0zm5 -10c0,0 0,0 0,0l0 3c0,0 0,0 0,0 0,0 0,1 0,1 0,0 0,0 1,0l1 5c0,0 0,0 0,0l-5 -4c0,0 0,-1 0,-1l3 -5zm2 5l3 1c0,0 0,0 0,1 0,0 0,0 0,0l-2 3c0,0 0,0 0,0 0,0 0,0 0,0l-1 -5c0,0 0,0 0,0zm7 8c0,0 0,0 -1,0l-2 -6c0,0 0,0 0,0 0,0 1,-1 0,-1 0,0 -1,-1 -1,0 0,0 0,0 0,0l-3 -1c0,0 0,-1 0,-1 0,0 0,0 0,0l0 -3c0,0 1,0 1,-1 0,-1 0,-1 -1,-1 -1,0 -1,0 -1,1 0,0 0,0 0,1l-3 5c0,0 -1,0 -1,0 0,0 -1,1 0,1 0,0 0,0 0,0l-4 3c0,0 0,0 -1,0 -1,0 -1,0 -1,1 0,1 0,1 1,1 0,0 1,0 1,0l4 1c0,0 0,1 0,1 0,0 0,0 0,0l0 4c0,0 -1,0 -1,0 0,0 0,1 0,1 0,0 1,0 1,0 0,0 0,0 0,-1l5 -2c0,0 1,1 1,0 0,0 0,0 0,-1l5 -1c0,0 0,0 0,0 0,0 1,0 1,0 0,0 0,-1 0,-1z"/>
  <path class="fil0" d="M17 17c-2,2 -6,3 -9,2 0,0 -1,0 -1,0 0,0 0,1 0,1 1,0 2,0 3,0 3,0 5,-1 7,-3 0,0 0,-1 0,-1 0,0 -1,0 -1,0z"/>
  <path class="fil0" d="M2 13c0,0 0,0 -1,0 0,0 0,0 0,1 0,2 1,3 3,4 0,0 0,0 0,0 0,0 0,0 0,0 0,0 0,-1 0,-1 -1,-1 -2,-2 -2,-4z"/>
  <path class="fil0" d="M1 8c0,0 0,0 0,0 0,0 0,0 0,0 0,-1 1,-1 1,-2 1,-2 3,-4 6,-4 0,0 0,0 0,-1 0,0 0,0 -1,0 -3,1 -5,2 -6,5 0,1 -1,2 -1,2 0,0 0,1 0,1z"/>
  <path class="fil0" d="M16 2c-1,0 -2,-1 -2,-1 0,0 -1,0 -1,0 0,0 0,1 0,1 1,0 1,1 2,1 4,2 5,6 4,10 0,0 0,1 0,1 0,0 0,0 0,0 0,0 0,0 0,0 1,-2 0,-4 0,-7 -1,-2 -2,-4 -4,-5z"/>
 </g>
</svg>
